<mxfile host="65bd71144e">
    <diagram id="N36LM2Sko0N_GgjaA9bG" name="Strona-1">
        <mxGraphModel dx="1045" dy="790" grid="1" gridSize="10" guides="1" tooltips="1" connect="1" arrows="1" fold="1" page="1" pageScale="1" pageWidth="827" pageHeight="1169" math="0" shadow="0">
            <root>
                <mxCell id="0"/>
                <mxCell id="1" parent="0"/>
                <mxCell id="2" value="Test&amp;nbsp;" style="rounded=0;whiteSpace=wrap;html=1;" vertex="1" parent="1">
                    <mxGeometry x="80" y="80" width="270" height="210" as="geometry"/>
                </mxCell>
                <mxCell id="3" value="TO jest test&lt;br style=&quot;font-size: 34px;&quot;&gt;" style="rounded=1;whiteSpace=wrap;html=1;strokeWidth=3;fillWeight=4;hachureGap=8;hachureAngle=45;fillColor=#1ba1e2;sketch=1;fontSize=34;fontStyle=1" vertex="1" parent="1">
                    <mxGeometry x="400" y="105" width="260" height="160" as="geometry"/>
                </mxCell>
            </root>
        </mxGraphModel>
    </diagram>
</mxfile>